<svg width="40" height="40" viewBox="0 0 40 40" fill="none" xmlns="http://www.w3.org/2000/svg">
    <path
        d="M27.3499 6.66669C30.5832 6.66669 33.1832 9.28336 33.1832 12.5C33.1832 15.65 30.6832 18.2167 27.5665 18.3334C27.4226 18.3167 27.2772 18.3167 27.1332 18.3334M30.5665 33.3334C31.7665 33.0834 32.8999 32.6 33.8332 31.8834C36.4332 29.9334 36.4332 26.7167 33.8332 24.7667C32.9165 24.0667 31.7999 23.6 30.6165 23.3334M15.2665 18.1167C15.0999 18.1 14.8999 18.1 14.7165 18.1167C12.8035 18.0517 10.9909 17.2448 9.66259 15.8666C8.33423 14.4885 7.59444 12.6474 7.59987 10.7334C7.59987 6.65002 10.8999 3.33336 14.9999 3.33336C16.9603 3.298 18.8544 4.04284 20.2656 5.40405C21.6768 6.76525 22.4895 8.6313 22.5249 10.5917C22.5602 12.5521 21.8154 14.4462 20.4542 15.8574C19.093 17.2687 17.2269 18.0813 15.2665 18.1167ZM6.9332 24.2667C2.89987 26.9667 2.89987 31.3667 6.9332 34.05C11.5165 37.1167 19.0332 37.1167 23.6165 34.05C27.6499 31.35 27.6499 26.95 23.6165 24.2667C19.0499 21.2167 11.5332 21.2167 6.9332 24.2667Z"
        stroke="#3C7BFC" stroke-width="2" stroke-linecap="round" stroke-linejoin="round" />
</svg>