<svg width="40" height="40" viewBox="0 0 40 40" fill="none" xmlns="http://www.w3.org/2000/svg">
    <path
        d="M19.9997 9.15003V34.15M12.9163 14.15H9.16634M14.1663 19.15H9.16634M36.6663 27.9V7.78336C36.6663 5.78336 35.033 4.30003 33.0497 4.4667H32.9497C29.4497 4.7667 24.133 6.55003 21.1663 8.4167L20.883 8.60003C20.3997 8.90003 19.5997 8.90003 19.1163 8.60003L18.6997 8.35003C15.733 6.50003 10.433 4.73336 6.93301 4.45003C4.94967 4.28336 3.33301 5.78336 3.33301 7.7667V27.9C3.33301 29.5 4.63301 31 6.23301 31.2L6.71634 31.2667C10.333 31.75 15.9163 33.5834 19.1163 35.3334L19.183 35.3667C19.633 35.6167 20.3497 35.6167 20.783 35.3667C23.983 33.6 29.583 31.75 33.2163 31.2667L33.7663 31.2C35.3663 31 36.6663 29.5 36.6663 27.9Z"
        stroke="#000" stroke-width="2" stroke-linecap="round" stroke-linejoin="round" />
</svg>