<svg width="40" height="40" viewBox="0 0 40 40" fill="none" xmlns="http://www.w3.org/2000/svg">
    <path
        d="M20.1999 21.3C20.0671 21.2833 19.9327 21.2833 19.7999 21.3C18.3865 21.2524 17.0469 20.6573 16.0642 19.6403C15.0814 18.6233 14.5325 17.2642 14.5333 15.85C14.5333 12.8333 16.9666 10.3833 19.9999 10.3833C21.4323 10.3808 22.8083 10.9413 23.8313 11.944C24.8543 12.9466 25.4423 14.3111 25.4685 15.7433C25.4947 17.1754 24.9571 18.5606 23.9716 19.6C22.986 20.6395 21.6315 21.25 20.1999 21.3ZM31.2333 32.3C28.1704 35.1151 24.16 36.674 19.9999 36.6666C15.6666 36.6666 11.7333 35.0166 8.7666 32.3C8.93327 30.7333 9.93327 29.2 11.7166 28C16.2833 24.9666 23.7499 24.9666 28.2833 28C30.0666 29.2 31.0666 30.7333 31.2333 32.3Z"
        stroke="black" stroke-width="1.5" stroke-linecap="round" stroke-linejoin="round" />
    <path
        d="M19.9997 36.6667C29.2047 36.6667 36.6663 29.205 36.6663 20C36.6663 10.795 29.2047 3.33337 19.9997 3.33337C10.7947 3.33337 3.33301 10.795 3.33301 20C3.33301 29.205 10.7947 36.6667 19.9997 36.6667Z"
        stroke="black" stroke-width="1.5" stroke-linecap="round" stroke-linejoin="round" />
</svg>